<?xml version="1.0" encoding="UTF-8"?>
<svg width="3881px" height="1000px" viewBox="0 0 3881 1000" version="1.1" xmlns="http://www.w3.org/2000/svg" xmlns:xlink="http://www.w3.org/1999/xlink">
    <!-- Generator: Sketch 47.1 (45422) - http://www.bohemiancoding.com/sketch -->
    <title>nationbuilder-horizontal-black</title>
    <desc>Created with Sketch.</desc>
    <defs></defs>
    <g id="Page-1" stroke="none" stroke-width="1" fill="none" fill-rule="evenodd">
        <g id="nationbuilder-horizontal-black">
            <path d="M1148,362 L1193.6,362 L1343.6,555.6 L1343.6,362 L1392,362 L1392,642 L1350.8,642 L1196.4,442.8 L1196.4,642 L1148,642 L1148,362 Z M1588.8,553.6 C1582.66664,551.199988 1575.40004,549.200008 1567,547.6 C1558.59996,545.999992 1549.73338,545.2 1540.4,545.2 C1525.19992,545.2 1513.33338,548.133304 1504.8,554 C1496.26662,559.866696 1492,567.866616 1492,578 L1492,578.8 C1492,588.933384 1495.93329,596.66664 1503.8,602 C1511.66671,607.33336 1521.33328,610 1532.8,610 C1540.80004,610 1548.19997,608.933344 1555,606.8 C1561.80003,604.666656 1567.73331,601.666686 1572.8,597.8 C1577.86669,593.933314 1581.79999,589.266694 1584.6,583.8 C1587.40001,578.333306 1588.8,572.2667 1588.8,565.6 L1588.8,553.6 Z M1587.6,642 L1587.6,616 C1580.39996,624.533376 1571.20006,631.733304 1560,637.6 C1548.79994,643.466696 1535.20008,646.4 1519.2,646.4 C1509.06662,646.4 1499.46671,645.000014 1490.4,642.2 C1481.33329,639.399986 1473.40003,635.266694 1466.6,629.8 C1459.79997,624.333306 1454.33335,617.533374 1450.2,609.4 C1446.06665,601.266626 1444,591.86672 1444,581.2 L1444,580.4 C1444,568.666608 1446.13331,558.46671 1450.4,549.8 C1454.66669,541.13329 1460.59996,533.933362 1468.2,528.2 C1475.80004,522.466638 1484.86661,518.200014 1495.4,515.4 C1505.93339,512.599986 1517.33327,511.2 1529.6,511.2 C1542.40006,511.2 1553.26662,511.999992 1562.2,513.6 C1571.13338,515.200008 1579.73329,517.33332 1588,520 L1588,516 C1588,501.33326 1583.53338,490.133372 1574.6,482.4 C1565.66662,474.666628 1552.80008,470.8 1536,470.8 C1523.99994,470.8 1513.33338,471.999988 1504,474.4 C1494.66662,476.800012 1485.20005,479.99998 1475.6,484 L1462.4,445.2 C1474.13339,439.86664 1486.13327,435.600016 1498.4,432.4 C1510.66673,429.199984 1525.46658,427.6 1542.8,427.6 C1574.26682,427.6 1597.59992,435.399922 1612.8,451 C1628.00008,466.600078 1635.6,488.533192 1635.6,516.8 L1635.6,642 L1587.6,642 Z M1764,645.6 C1755.19996,645.6 1747.0667,644.533344 1739.6,642.4 C1732.1333,640.266656 1725.66669,636.800024 1720.2,632 C1714.73331,627.199976 1710.53335,620.866706 1707.6,613 C1704.66665,605.133294 1703.2,595.333392 1703.2,583.6 L1703.2,472.4 L1676.4,472.4 L1676.4,430.8 L1703.2,430.8 L1703.2,372.8 L1751.6,372.8 L1751.6,430.8 L1808.4,430.8 L1808.4,472.4 L1751.6,472.4 L1751.6,576 C1751.6,585.33338 1753.86664,592.066646 1758.4,596.2 C1762.93336,600.333354 1769.33329,602.4 1777.6,602.4 C1788.00005,602.4 1797.99995,600.000024 1807.6,595.2 L1807.6,634.8 C1801.46664,638.266684 1794.93337,640.933324 1788,642.8 C1781.06663,644.666676 1773.06671,645.6 1764,645.6 Z M1860,430.8 L1908.4,430.8 L1908.4,642 L1860,642 L1860,430.8 Z M1858,352.4 L1910,352.4 L1910,398.4 L1858,398.4 L1858,352.4 Z M2072.8,604.8 C2082.66672,604.8 2091.53329,603.000018 2099.4,599.4 C2107.26671,595.799982 2113.99997,590.933364 2119.6,584.8 C2125.20003,578.666636 2129.46665,571.533374 2132.4,563.4 C2135.33335,555.266626 2136.8,546.666712 2136.8,537.6 L2136.8,536.8 C2136.8,527.46662 2135.20002,518.666708 2132,510.4 C2128.79998,502.133292 2124.33336,494.933364 2118.6,488.8 C2112.86664,482.666636 2106.06671,477.800018 2098.2,474.2 C2090.33329,470.599982 2081.60005,468.8 2072,468.8 C2062.39995,468.8 2053.66671,470.599982 2045.8,474.2 C2037.93329,477.800018 2031.20003,482.59997 2025.6,488.6 C2019.99997,494.60003 2015.73335,501.733292 2012.8,510 C2009.86665,518.266708 2008.4,526.933288 2008.4,536 L2008.4,536.8 C2008.4,546.13338 2009.99998,554.866626 2013.2,563 C2016.40002,571.133374 2020.86664,578.333302 2026.6,584.6 C2032.33336,590.866698 2039.13329,595.799982 2047,599.4 C2054.86671,603.000018 2063.46662,604.8 2072.8,604.8 Z M2072,646.8 C2055.99992,646.8 2041.1334,643.933362 2027.4,638.2 C2013.6666,632.466638 2001.80005,624.666716 1991.8,614.8 C1981.79995,604.933284 1974.00003,593.3334 1968.4,580 C1962.79997,566.6666 1960,552.533408 1960,537.6 L1960,536.8 C1960,521.599924 1962.86664,507.3334 1968.6,494 C1974.33336,480.6666 1982.19995,469.00005 1992.2,459 C2002.20005,448.99995 2014.0666,441.066696 2027.8,435.2 C2041.5334,429.333304 2056.53325,426.4 2072.8,426.4 C2089.06675,426.4 2104.0666,429.266638 2117.8,435 C2131.5334,440.733362 2143.39995,448.59995 2153.4,458.6 C2163.40005,468.60005 2171.19997,480.199934 2176.8,493.4 C2182.40003,506.600066 2185.2,520.799924 2185.2,536 L2185.2,536.8 C2185.2,551.733408 2182.33336,565.8666 2176.6,579.2 C2170.86664,592.5334 2163.00005,604.19995 2153,614.2 C2142.99995,624.20005 2131.06674,632.133304 2117.2,638 C2103.33326,643.866696 2088.26675,646.8 2072,646.8 Z M2234.4,430.8 L2282.8,430.8 L2282.8,463.6 C2286.26668,458.533308 2290.06665,453.800022 2294.2,449.4 C2298.33335,444.999978 2303.13331,441.066684 2308.6,437.6 C2314.06669,434.133316 2320.06663,431.40001 2326.6,429.4 C2333.13337,427.39999 2340.53329,426.4 2348.8,426.4 C2372.80012,426.4 2391.33327,433.73326 2404.4,448.4 C2417.46673,463.06674 2424,482.799876 2424,507.6 L2424,642 L2375.6,642 L2375.6,522 C2375.6,505.466584 2371.66671,492.733378 2363.8,483.8 C2355.93329,474.866622 2344.80007,470.4 2330.4,470.4 C2316.2666,470.4 2304.80004,474.999954 2296,484.2 C2287.19996,493.400046 2282.8,506.266584 2282.8,522.8 L2282.8,642 L2234.4,642 L2234.4,430.8 Z M2618,598.4 C2634.80008,598.4 2647.99995,595.200032 2657.6,588.8 C2667.20005,582.399968 2672,572.800064 2672,560 L2672,559.2 C2672,547.19994 2667.26671,537.933366 2657.8,531.4 C2648.33329,524.866634 2633.86676,521.6 2614.4,521.6 L2536.4,521.6 L2536.4,598.4 L2618,598.4 Z M2603.6,480 C2619.60008,480 2632.39995,476.866698 2642,470.6 C2651.60005,464.333302 2656.4,454.800064 2656.4,442 L2656.4,441.2 C2656.4,429.999944 2652.20004,421.266698 2643.8,415 C2635.39996,408.733302 2623.20008,405.6 2607.2,405.6 L2536.4,405.6 L2536.4,480 L2603.6,480 Z M2488,362 L2613.6,362 C2645.86683,362 2670.26658,370.266584 2686.8,386.8 C2699.3334,399.333396 2705.6,414.799908 2705.6,433.2 L2705.6,434 C2705.6,442.533376 2704.46668,450.066634 2702.2,456.6 C2699.93332,463.133366 2697.00002,468.866642 2693.4,473.8 C2689.79998,478.733358 2685.53336,483.066648 2680.6,486.8 C2675.66664,490.533352 2670.66669,493.73332 2665.6,496.4 C2673.86671,499.333348 2681.39997,502.733314 2688.2,506.6 C2695.00003,510.466686 2700.86664,515.06664 2705.8,520.4 C2710.73336,525.73336 2714.53332,531.999964 2717.2,539.2 C2719.86668,546.400036 2721.2,554.799952 2721.2,564.4 L2721.2,565.2 C2721.2,577.733396 2718.73336,588.799952 2713.8,598.4 C2708.86664,608.000048 2701.86671,615.999968 2692.8,622.4 C2683.73329,628.800032 2672.80006,633.66665 2660,637 C2647.19994,640.33335 2633.06674,642 2617.6,642 L2488,642 L2488,362 Z M2844,646.4 C2819.99988,646.4 2801.46673,639.06674 2788.4,624.4 C2775.33327,609.73326 2768.8,590.000124 2768.8,565.2 L2768.8,430.8 L2817.2,430.8 L2817.2,550.8 C2817.2,567.333416 2821.13329,580.066622 2829,589 C2836.86671,597.933378 2847.99993,602.4 2862.4,602.4 C2876.5334,602.4 2887.99996,597.800046 2896.8,588.6 C2905.60004,579.399954 2910,566.533416 2910,550 L2910,430.8 L2958.4,430.8 L2958.4,642 L2910,642 L2910,609.2 C2903.06663,619.333384 2894.40005,628.06663 2884,635.4 C2873.59995,642.73337 2860.26675,646.4 2844,646.4 Z M3022,430.8 L3070.4,430.8 L3070.4,642 L3022,642 L3022,430.8 Z M3020,352.4 L3072,352.4 L3072,398.4 L3020,398.4 L3020,352.4 Z M3136.4,350 L3184.8,350 L3184.8,642 L3136.4,642 L3136.4,350 Z M3346.8,604.4 C3354.80004,604.4 3362.5333,602.800016 3370,599.6 C3377.4667,596.399984 3383.99997,591.80003 3389.6,585.8 C3395.20003,579.79997 3399.66665,572.666708 3403,564.4 C3406.33335,556.133292 3408,546.933384 3408,536.8 L3408,536 C3408,525.866616 3406.33335,516.600042 3403,508.2 C3399.66665,499.799958 3395.20003,492.666696 3389.6,486.8 C3383.99997,480.933304 3377.4667,476.400016 3370,473.2 C3362.5333,469.999984 3354.80004,468.4 3346.8,468.4 C3338.53329,468.4 3330.73337,469.933318 3323.4,473 C3316.06663,476.066682 3309.60003,480.533304 3304,486.4 C3298.39997,492.266696 3294.00002,499.399958 3290.8,507.8 C3287.59998,516.200042 3286,525.599948 3286,536 L3286,536.8 C3286,546.933384 3287.59998,556.199958 3290.8,564.6 C3294.00002,573.000042 3298.39997,580.133304 3304,586 C3309.60003,591.866696 3316.06663,596.399984 3323.4,599.6 C3330.73337,602.800016 3338.53329,604.4 3346.8,604.4 Z M3335.2,646.4 C3322.6666,646.4 3310.53339,644.000024 3298.8,639.2 C3287.06661,634.399976 3276.66671,627.33338 3267.6,618 C3258.53329,608.66662 3251.20003,597.200068 3245.6,583.6 C3239.99997,569.999932 3237.2,554.400088 3237.2,536.8 L3237.2,536 C3237.2,518.399912 3239.93331,502.800068 3245.4,489.2 C3250.86669,475.599932 3258.13329,464.13338 3267.2,454.8 C3276.26671,445.46662 3286.73327,438.400024 3298.6,433.6 C3310.46673,428.799976 3322.6666,426.4 3335.2,426.4 C3352.53342,426.4 3366.93328,430.133296 3378.4,437.6 C3389.86672,445.066704 3399.46663,453.733284 3407.2,463.6 L3407.2,350 L3455.6,350 L3455.6,642 L3407.2,642 L3407.2,606.8 C3399.46663,617.733388 3389.80006,627.066628 3378.2,634.8 C3366.59994,642.533372 3352.26675,646.4 3335.2,646.4 Z M3660.8,521.6 C3660,513.866628 3658.26668,506.600034 3655.6,499.8 C3652.93332,492.999966 3649.33336,487.133358 3644.8,482.2 C3640.26664,477.266642 3634.8667,473.333348 3628.6,470.4 C3622.3333,467.466652 3615.20004,466 3607.2,466 C3592.26659,466 3579.93338,471.133282 3570.2,481.4 C3560.46662,491.666718 3554.53334,505.066584 3552.4,521.6 L3660.8,521.6 Z M3612.8,646.8 C3597.59992,646.8 3583.40007,644.13336 3570.2,638.8 C3556.99993,633.46664 3545.53338,626.000048 3535.8,616.4 C3526.06662,606.799952 3518.40003,595.266734 3512.8,581.8 C3507.19997,568.333266 3504.4,553.466748 3504.4,537.2 L3504.4,536.4 C3504.4,521.199924 3506.93331,506.9334 3512,493.6 C3517.06669,480.2666 3524.19995,468.60005 3533.4,458.6 C3542.60005,448.59995 3553.4666,440.733362 3566,435 C3578.5334,429.266638 3592.39992,426.4 3607.6,426.4 C3624.40008,426.4 3639.13327,429.466636 3651.8,435.6 C3664.46673,441.733364 3674.99996,449.999948 3683.4,460.4 C3691.80004,470.800052 3698.13331,482.866598 3702.4,496.6 C3706.66669,510.333402 3708.8,524.799924 3708.8,540 C3708.8,542.133344 3708.73333,544.333322 3708.6,546.6 C3708.46667,548.866678 3708.26667,551.199988 3708,553.6 L3552.8,553.6 C3555.46668,570.93342 3562.33328,584.199954 3573.4,593.4 C3584.46672,602.600046 3597.86659,607.2 3613.6,607.2 C3625.60006,607.2 3635.99996,605.066688 3644.8,600.8 C3653.60004,596.533312 3662.26662,590.266708 3670.8,582 L3699.2,607.2 C3689.06662,619.20006 3677.00007,628.799964 3663,636 C3648.99993,643.200036 3632.26676,646.8 3612.8,646.8 Z M3757.6,430.8 L3806,430.8 L3806,478.4 C3812.6667,462.39992 3822.13327,449.600048 3834.4,440 C3846.66673,430.399952 3862.13324,425.999996 3880.8,426.8 L3880.8,478 L3878,478 C3867.33328,478 3857.60004,479.733316 3848.8,483.2 C3839.99996,486.666684 3832.40003,491.866632 3826,498.8 C3819.59997,505.733368 3814.66668,514.466614 3811.2,525 C3807.73332,535.533386 3806,547.733264 3806,561.6 L3806,642 L3757.6,642 L3757.6,430.8 Z" id="NationBuilder" fill="#000000"></path>
            <g id="Mark" fill-rule="nonzero">
                <g id="Circle" transform="translate(500.000000, 500.000000) scale(-1, 1) rotate(-180.000000) translate(-500.000000, -500.000000) ">
                    <path d="M500.344674,0 C678.800904,0 843.691364,95.295203 932.919479,250 C1022.14759,404.704797 1022.14759,595.295203 932.919479,750 C843.691364,904.704797 678.800904,1000 500.344674,1000 C321.888444,1000 156.997984,904.704797 67.7698685,750 C-21.4582466,595.295203 -21.4582466,404.704797 67.7698685,250 C156.997984,95.295203 321.888444,0 500.344674,0 L500.344674,47.9704797 C339.011542,47.9704797 189.935526,134.132841 109.259744,273.98524 C28.5839622,413.837638 28.5839622,586.162362 109.259744,726.01476 C189.935526,865.867159 339.011542,952.02952 500.344674,952.02952 C661.677806,952.02952 810.753822,865.867159 891.429604,726.01476 C972.105385,586.162362 972.105385,413.837638 891.429604,273.98524 C810.753822,134.132841 661.677806,47.9704797 500.344674,47.9704797 L500.344674,0 Z" id="Base-plate" fill-opacity="0.002" fill="#455A64"></path>
                    <path d="M500.344674,0 C652.351339,0 796.100578,69.2804428 890.876651,188.247232 L853.404898,218.154982 C767.715679,110.608856 637.771822,47.9704797 500.344674,47.9704797 L500.344674,0 Z" id="Segment-1" fill="#CE001B"></path>
                    <path d="M890.876651,188.247232 C985.652724,307.214022 1021.15228,462.915129 987.330013,611.254613 L940.60552,600.590406 C971.183798,466.476015 939.094116,325.701107 853.404898,218.154982 L890.876651,188.247232 Z" id="Segment-2" fill="#780011"></path>
                    <path d="M987.330013,611.254613 C953.507747,759.594096 854.013146,884.464945 717.065223,950.479705 L696.274205,907.269373 C820.09872,847.583026 910.027242,734.704797 940.60552,600.590406 L987.330013,611.254613 Z" id="Segment-3" fill="#6D7096"></path>
                    <path d="M717.065223,950.479705 C580.1173,1016.49446 420.572048,1016.49446 283.624125,950.479705 L304.415142,907.269373 C428.239657,966.95572 572.449691,966.95572 696.274205,907.269373 L717.065223,950.479705 Z" id="Segment-4" fill="#60BBD5"></path>
                    <path d="M283.624125,950.479705 C146.676202,884.464945 47.1816007,759.594096 13.3593344,611.254613 L60.0838276,600.590406 C90.6621054,734.704797 180.590627,847.583026 304.415142,907.269373 L283.624125,950.479705 Z" id="Segment-5" fill="#0F99BE"></path>
                    <path d="M13.3593344,611.254613 C-20.4629319,462.915129 15.0366239,307.214022 109.812697,188.247232 L147.28445,218.154982 C61.5952313,325.701107 29.5055498,466.476015 60.0838276,600.590406 L13.3593344,611.254613 Z" id="Segment-6" fill="#8C9D26"></path>
                    <path d="M109.812697,188.247232 C204.588769,69.2804428 348.338009,0 500.344674,0 L500.344674,47.9704797 C362.917525,47.9704797 232.973668,110.608856 147.28445,218.154982 L109.812697,188.247232 Z" id="Segment-7" fill="#FCD813"></path>
                </g>
                <path d="M279,624.375 L279,580.419 L365.792431,580.419 L394.058327,417.582 L308,417.582 L308,372.627 L401.749519,372.627 L424.749519,231.768 L477.922978,231.768 L453.922978,372.627 L588.749519,372.627 L611.749519,231.768 L664.881687,231.768 L641.881687,372.627 L722,372.627 L722,417.582 L634.207569,417.582 L605.941673,580.419 L693,580.419 L693,624.375 L599.235635,624.375 L575.235635,768.231 L523.097698,768.231 L547.097698,624.375 L412.235635,624.375 L388.235635,768.231 L336.138013,768.231 L359.138013,624.375 L279,624.375 Z M581.125686,417.582 L445.255816,417.582 L418.874314,580.419 L554.744184,580.419 L581.125686,417.582 Z" id="Octothorpe" fill="#000000"></path>
            </g>
        </g>
    </g>
</svg>